<svg id="visual" viewBox="0 0 900 600" width="900" height="600" xmlns="http://www.w3.org/2000/svg" xmlns:xlink="http://www.w3.org/1999/xlink" version="1.1"><g stroke-width="1" stroke-linejoin="bevel"><path d="M300 300L300 0L0 0Z" fill="#b3cad6" stroke="#b3cad6"></path><path d="M0 0L0 300L300 300Z" fill="#9ab0bc" stroke="#9ab0bc"></path><path d="M300 300L600 0L300 0Z" fill="#b3cad6" stroke="#b3cad6"></path><path d="M300 300L600 300L600 0Z" fill="#cce5f1" stroke="#cce5f1"></path><path d="M0 300L0 600L300 300Z" fill="#6a7d8a" stroke="#6a7d8a"></path><path d="M300 300L300 600L600 300Z" fill="#cce5f1" stroke="#cce5f1"></path><path d="M0 600L300 600L300 300Z" fill="#162430" stroke="#162430"></path><path d="M300 600L600 600L600 300Z" fill="#00101c" stroke="#00101c"></path><path d="M600 300L900 0L600 0Z" fill="#3e4e5b" stroke="#3e4e5b"></path><path d="M900 300L900 0L600 300Z" fill="#00101c" stroke="#00101c"></path><path d="M600 600L900 300L600 300Z" fill="#6a7d8a" stroke="#6a7d8a"></path><path d="M600 600L900 600L900 300Z" fill="#9ab0bc" stroke="#9ab0bc"></path></g></svg>