<svg id="visual" viewBox="0 0 900 600" width="900" height="600" xmlns="http://www.w3.org/2000/svg" xmlns:xlink="http://www.w3.org/1999/xlink" version="1.1"><g stroke-width="1" stroke-linejoin="bevel"><path d="M440 449L531 600L715 469Z" fill="#000000" stroke="#173e00"></path><path d="M531 600L667 600L715 469Z" fill="#000000" stroke="#173e00"></path><path d="M715 469L629 197L440 449Z" fill="#000000" stroke="#173e00"></path><path d="M667 600L900 600L715 469Z" fill="#000000" stroke="#173e00"></path><path d="M715 469L900 337L629 197Z" fill="#000000" stroke="#173e00"></path><path d="M900 600L900 337L715 469Z" fill="#000000" stroke="#173e00"></path><path d="M629 197L364 152L440 449Z" fill="#000000" stroke="#173e00"></path><path d="M900 337L900 210L629 197Z" fill="#000000" stroke="#173e00"></path><path d="M629 197L417 0L364 152Z" fill="#000000" stroke="#173e00"></path><path d="M364 152L127 403L440 449Z" fill="#000000" stroke="#173e00"></path><path d="M440 449L141 600L531 600Z" fill="#000000" stroke="#173e00"></path><path d="M127 403L141 600L440 449Z" fill="#000000" stroke="#173e00"></path><path d="M900 0L614 0L629 197Z" fill="#000000" stroke="#173e00"></path><path d="M364 152L152 207L127 403Z" fill="#000000" stroke="#173e00"></path><path d="M614 0L417 0L629 197Z" fill="#000000" stroke="#173e00"></path><path d="M146 0L152 207L364 152Z" fill="#000000" stroke="#173e00"></path><path d="M900 210L900 0L629 197Z" fill="#000000" stroke="#173e00"></path><path d="M127 403L0 474L141 600Z" fill="#000000" stroke="#173e00"></path><path d="M0 188L0 474L127 403Z" fill="#000000" stroke="#173e00"></path><path d="M0 474L0 600L141 600Z" fill="#000000" stroke="#173e00"></path><path d="M417 0L146 0L364 152Z" fill="#000000" stroke="#173e00"></path><path d="M152 207L0 188L127 403Z" fill="#000000" stroke="#173e00"></path><path d="M146 0L0 188L152 207Z" fill="#000000" stroke="#173e00"></path><path d="M146 0L0 0L0 188Z" fill="#000000" stroke="#173e00"></path></g></svg>